<svg width="23" height="23" viewBox="0 0 23 23" fill="none" xmlns="http://www.w3.org/2000/svg">
<path d="M17.7292 0H5.27083C2.36517 0 0 2.36421 0 5.27083V13.8958C0 16.8025 2.36517 19.1667 5.27083 19.1667H6.45917L9.90917 22.0714C10.3682 22.4787 10.9432 22.6799 11.5134 22.6799C12.0712 22.6799 12.6232 22.4863 13.0525 22.1049L16.606 19.1667H17.7292C20.6348 19.1667 23 16.8025 23 13.8958V5.27083C23 2.36421 20.6348 0 17.7292 0ZM20.125 13.8958C20.125 15.2164 19.0507 16.2917 17.7292 16.2917H16.0885C15.754 16.2917 15.4301 16.4086 15.1723 16.6213L11.5038 19.6564L7.91104 16.63C7.65133 16.4115 7.32358 16.2917 6.98433 16.2917H5.27083C3.94929 16.2917 2.875 15.2164 2.875 13.8958V5.27083C2.875 3.95025 3.94929 2.875 5.27083 2.875H17.7292C19.0507 2.875 20.125 3.95025 20.125 5.27083V13.8958ZM15.824 5.60529C16.5533 6.49654 16.3971 7.82575 15.5825 8.64033L11.0515 13.1713C10.2724 13.9505 9.21629 14.3875 8.11517 14.3875H7.19996C6.93546 14.3875 6.72079 14.1728 6.72079 13.9083V12.9931C6.72079 11.892 7.15875 10.8349 7.93692 10.0568L12.5561 5.43758C13.4694 4.52429 14.9845 4.58083 15.823 5.60625L15.824 5.60529Z" fill="#665A59"/>
</svg>
